<svg width="250" height="49" viewBox="0 0 250 49" fill="none" xmlns="http://www.w3.org/2000/svg">
<path fill-rule="evenodd" clip-rule="evenodd" d="M78.5385 40.2313C77.4859 41.6323 75.8103 42.5385 73.923 42.5385C70.7368 42.5385 68.1538 39.9555 68.1538 36.7692C68.1538 36.7691 68.1538 36.7689 68.1538 36.7687C67.4293 37.733 67 38.9318 67 40.2308C67 43.417 69.583 46 72.7692 46C75.9553 46 78.5382 43.4173 78.5385 40.2313Z" fill="#FAFAFA"/>
<path d="M39.4304 36H30.0224L17.4944 17.088V36H8.08644V2.16H17.4944L30.0224 21.312V2.16H39.4304V36ZM57.3176 36.336C54.6296 36.336 52.2136 35.776 50.0696 34.656C47.9576 33.536 46.2936 31.936 45.0776 29.856C43.8616 27.776 43.2536 25.328 43.2536 22.512C43.2536 19.728 43.8616 17.296 45.0776 15.216C46.3256 13.136 48.0056 11.536 50.1176 10.416C52.2616 9.296 54.6776 8.736 57.3656 8.736C60.0536 8.736 62.4536 9.296 64.5656 10.416C66.7096 11.536 68.3896 13.136 69.6056 15.216C70.8536 17.296 71.4776 19.728 71.4776 22.512C71.4776 25.296 70.8536 27.744 69.6056 29.856C68.3896 31.936 66.7096 33.536 64.5656 34.656C62.4216 35.776 60.0056 36.336 57.3176 36.336ZM57.3176 28.176C58.6296 28.176 59.7176 27.696 60.5816 26.736C61.4776 25.744 61.9256 24.336 61.9256 22.512C61.9256 20.688 61.4776 19.296 60.5816 18.336C59.7176 17.376 58.6456 16.896 57.3656 16.896C56.0856 16.896 55.0136 17.376 54.1496 18.336C53.2856 19.296 52.8536 20.688 52.8536 22.512C52.8536 24.368 53.2696 25.776 54.1016 26.736C54.9336 27.696 56.0056 28.176 57.3176 28.176ZM87.8332 36.336C85.1452 36.336 82.7292 35.776 80.5852 34.656C78.4732 33.536 76.8092 31.936 75.5932 29.856C74.3772 27.776 73.7692 25.328 73.7692 22.512C73.7692 19.728 74.3772 17.296 75.5932 15.216C76.8412 13.136 78.5212 11.536 80.6332 10.416C82.7772 9.296 85.1932 8.736 87.8812 8.736C90.5692 8.736 92.9692 9.296 95.0812 10.416C97.2252 11.536 98.9052 13.136 100.121 15.216C101.369 17.296 101.993 19.728 101.993 22.512C101.993 25.296 101.369 27.744 100.121 29.856C98.9052 31.936 97.2252 33.536 95.0812 34.656C92.9372 35.776 90.5212 36.336 87.8332 36.336ZM87.8332 28.176C89.1452 28.176 90.2332 27.696 91.0972 26.736C91.9932 25.744 92.4412 24.336 92.4412 22.512C92.4412 20.688 91.9932 19.296 91.0972 18.336C90.2332 17.376 89.1612 16.896 87.8812 16.896C86.6012 16.896 85.5292 17.376 84.6652 18.336C83.8012 19.296 83.3692 20.688 83.3692 22.512C83.3692 24.368 83.7852 25.776 84.6172 26.736C85.4492 27.696 86.5212 28.176 87.8332 28.176ZM115.229 0.48V36H105.821V0.48H115.229ZM149.578 9.072L132.49 48.816H122.266L128.698 34.848L117.658 9.072H128.122L133.786 24.336L139.258 9.072H149.578ZM201.661 8.832C205.053 8.832 207.709 9.856 209.629 11.904C211.581 13.952 212.557 16.752 212.557 20.304V36H203.149V21.552C203.149 20.112 202.749 18.992 201.949 18.192C201.149 17.392 200.061 16.992 198.685 16.992C197.309 16.992 196.221 17.392 195.421 18.192C194.621 18.992 194.221 20.112 194.221 21.552V36H184.813V21.552C184.813 20.112 184.413 18.992 183.613 18.192C182.845 17.392 181.773 16.992 180.397 16.992C178.989 16.992 177.885 17.392 177.085 18.192C176.285 18.992 175.885 20.112 175.885 21.552V36H166.477V9.072H175.885V12.624C176.717 11.472 177.789 10.56 179.101 9.888C180.445 9.184 181.981 8.832 183.709 8.832C185.693 8.832 187.453 9.264 188.989 10.128C190.557 10.992 191.789 12.208 192.685 13.776C193.645 12.304 194.909 11.12 196.477 10.224C198.045 9.296 199.773 8.832 201.661 8.832ZM243.439 22.224C243.439 22.96 243.391 23.696 243.295 24.432H225.487C225.583 25.904 225.983 27.008 226.687 27.744C227.423 28.448 228.351 28.8 229.471 28.8C231.039 28.8 232.159 28.096 232.831 26.688H242.863C242.447 28.544 241.631 30.208 240.415 31.68C239.231 33.12 237.727 34.256 235.903 35.088C234.079 35.92 232.063 36.336 229.855 36.336C227.199 36.336 224.831 35.776 222.751 34.656C220.703 33.536 219.087 31.936 217.903 29.856C216.751 27.776 216.175 25.328 216.175 22.512C216.175 19.696 216.751 17.264 217.903 15.216C219.055 13.136 220.655 11.536 222.703 10.416C224.783 9.296 227.167 8.736 229.855 8.736C232.511 8.736 234.863 9.28 236.911 10.368C238.959 11.456 240.559 13.024 241.711 15.072C242.863 17.088 243.439 19.472 243.439 22.224ZM233.839 19.872C233.839 18.72 233.455 17.824 232.687 17.184C231.919 16.512 230.959 16.176 229.807 16.176C228.655 16.176 227.711 16.496 226.975 17.136C226.239 17.744 225.759 18.656 225.535 19.872H233.839Z" fill="#FAFAFA"/>
<path d="M156.6 36.384C154.936 36.384 153.592 35.936 152.568 35.04C151.576 34.112 151.08 32.944 151.08 31.536C151.08 30.128 151.576 28.96 152.568 28.032C153.592 27.104 154.936 26.64 156.6 26.64C158.232 26.64 159.544 27.104 160.536 28.032C161.56 28.96 162.072 30.128 162.072 31.536C162.072 32.912 161.56 34.064 160.536 34.992C159.544 35.92 158.232 36.384 156.6 36.384Z" fill="#F90670"/>
</svg>
